<?xml version="1.0" standalone="no"?>
<!DOCTYPE svg PUBLIC "-//W3C//DTD SVG 20010904//EN"
 "http://www.w3.org/TR/2001/REC-SVG-20010904/DTD/svg10.dtd">
<svg version="1.0" xmlns="http://www.w3.org/2000/svg"
 width="225.000000pt" height="225.000000pt" viewBox="0 0 225.000000 225.000000"
 preserveAspectRatio="xMidYMid meet">
<metadata>
Created by potrace 1.14, written by Peter Selinger 2001-2017
</metadata>
<g transform="translate(0.000000,225.000000) scale(0.100000,-0.100000)"
fill="#000000" stroke="none">
<path d="M0 1125 l0 -1125 1125 0 1125 0 0 1125 0 1125 -1125 0 -1125 0 0
-1125z m946 488 c95 -60 173 -110 174 -113 0 -3 -55 -40 -123 -82 -67 -43
-146 -92 -175 -111 l-53 -33 176 -110 c96 -60 175 -111 175 -114 0 -6 -321
-207 -343 -216 -15 -5 -352 201 -352 216 0 5 72 54 160 110 87 55 163 104 168
109 5 5 -67 56 -162 116 -94 59 -171 110 -171 114 0 6 339 221 348 221 2 0 82
-48 178 -107z m721 -6 c89 -56 163 -105 163 -108 0 -4 -77 -55 -170 -113 -94
-59 -168 -111 -166 -115 3 -4 80 -54 171 -111 91 -57 164 -107 163 -111 -6
-17 -342 -220 -355 -215 -22 9 -343 210 -343 216 0 3 79 54 175 114 l176 110
-53 33 c-29 19 -108 68 -175 111 -68 42 -123 79 -123 82 1 13 347 219 359 214
8 -2 88 -51 178 -107z m-361 -744 c131 -82 170 -111 161 -119 -16 -15 -334
-214 -342 -214 -8 0 -326 199 -342 214 -9 8 30 37 160 118 95 59 176 108 181
108 5 0 87 -48 182 -107z"/>
</g>
</svg>
